<svg width="51" height="65" viewBox="0 0 51 65" fill="none" xmlns="http://www.w3.org/2000/svg">
<mask id="mask0_2214_42" style="mask-type:luminance" maskUnits="userSpaceOnUse" x="0" y="0" width="51" height="65">
<path d="M0 0H51V64.9942H0V0Z" fill="white"/>
</mask>
<g mask="url(#mask0_2214_42)">
<path d="M38.2997 25.1161C38.2629 24.832 38.0367 24.611 37.7526 24.5742C30.6029 23.7009 28.267 17.3403 25.5103 7.73376C25.4314 7.46019 25.1736 7.2708 24.8842 7.27606C24.6001 7.28132 24.3529 7.4865 24.2845 7.76533C23.7478 10.0644 23.4585 12.1267 23.2007 13.9417C22.3589 19.9235 21.8907 23.2168 14.3149 25.4212C14.0729 25.4896 13.894 25.7 13.8625 25.9526C13.8309 26.2051 13.9572 26.4524 14.1729 26.5786C24.6001 32.5814 24.9526 34.3596 25.9101 39.105C26.1153 40.1204 26.3468 41.2778 26.7098 42.6246C26.7834 42.9035 27.036 43.0981 27.3201 43.0981C27.3306 43.0981 27.3464 43.0981 27.3621 43.0929C27.662 43.0771 27.9093 42.8456 27.9461 42.5457C29.1877 33.1075 29.7033 29.1986 37.9157 25.7895C38.184 25.679 38.3418 25.4002 38.2997 25.1161ZM27.1675 38.9209C27.1622 38.8998 27.157 38.8788 27.1517 38.8525C26.21 34.1807 25.7628 31.9501 16.0405 26.1998C23.1007 23.7324 23.6479 19.8446 24.4528 14.1206C24.6106 13.0105 24.779 11.811 25.0105 10.5273C27.3306 18.2031 29.8348 23.7798 35.6272 25.437C29.4665 28.5094 28.1408 32.392 27.1675 38.9209ZM51.2575 51.7419C51.2155 51.4578 50.9945 51.2316 50.7104 51.1948C44.5919 50.3846 43.5029 46.5335 41.9982 41.2042C41.9035 40.8832 41.8141 40.5571 41.7194 40.2256C41.6405 39.9468 41.3827 39.7574 41.0933 39.7626C40.804 39.7732 40.5567 39.9731 40.4936 40.2519C40.2042 41.4777 40.1095 42.5773 40.0201 43.6453C39.9043 45.0079 39.7939 46.2915 39.2941 47.7278C38.3997 50.3109 35.8586 51.0475 33.1755 51.8314C32.9283 51.8997 32.7494 52.1102 32.7231 52.3627C32.6915 52.6152 32.8125 52.8625 33.0335 52.9888C33.6753 53.357 34.3066 53.6937 34.9169 54.0199C36.7109 54.9669 38.3997 55.8665 39.8675 57.4027C41.2301 58.8337 41.793 61.0907 42.2928 63.0793C42.3875 63.4476 42.477 63.8106 42.5717 64.1578C42.6453 64.4367 42.8978 64.6261 43.1819 64.6261C43.1977 64.6261 43.2082 64.6261 43.224 64.6261C43.5239 64.605 43.7712 64.3735 43.8132 64.0737C43.9343 63.1372 43.95 62.2376 43.9658 61.3695C43.9974 59.6965 44.0237 58.113 44.8497 56.582C46.0176 54.425 48.8217 53.2623 50.8682 52.4101C51.1365 52.2996 51.2944 52.026 51.2575 51.7419ZM43.7343 55.977C43.0136 57.3186 42.8084 58.6654 42.74 59.9911C42.2981 58.718 41.7036 57.4974 40.7829 56.5294C39.1783 54.8459 37.4001 53.8989 35.5114 52.8993C35.3378 52.8046 35.1537 52.7099 34.9748 52.61C37.2896 51.8682 39.5729 50.7897 40.4883 48.1434C41.0407 46.5546 41.1617 45.1289 41.2827 43.7505L41.3143 43.4033C42.5138 47.4016 44.0026 50.7476 48.5324 52.0418C46.6963 52.9046 44.755 54.0883 43.7343 55.977ZM35.3694 7.46545C39.4045 9.45411 39.5361 10.017 39.8886 11.5164C39.9727 11.8742 40.0674 12.2793 40.22 12.7633C40.2989 13.0316 40.5462 13.2105 40.825 13.2105C40.8408 13.2105 40.8566 13.2052 40.8724 13.2052C41.167 13.1841 41.4037 12.9632 41.4511 12.6686C41.9351 9.4962 42.1192 8.30721 45.2127 7.20767C45.4915 7.10771 45.6599 6.82888 45.6283 6.53426C45.5915 6.23964 45.36 6.00816 45.0654 5.98186C42.398 5.70302 41.5405 3.69859 40.4515 0.431517C40.362 0.168468 40.1043 -0.00514562 39.8307 0.000116381C39.5518 0.0106377 39.3098 0.200033 39.2362 0.468344C39.0152 1.2838 38.8942 2.00981 38.789 2.64639C38.4576 4.66135 38.305 5.58202 35.4956 6.28173C35.2378 6.34486 35.0484 6.56056 35.0221 6.82888C34.9906 7.09192 35.1326 7.34445 35.3694 7.46545ZM40.0201 2.97783C40.6724 4.55613 41.5615 6.0029 43.1293 6.74996C41.6983 7.56541 41.0723 8.54922 40.6987 9.86446C40.2621 8.92801 39.4466 8.18095 37.2896 7.02353C39.4572 6.09234 39.736 4.68765 40.0201 2.97783ZM14.7147 43.6137C8.50677 40.9306 8.26477 40.0888 7.61766 37.8319C7.47036 37.3215 7.30201 36.7376 7.04948 36.0589C6.94952 35.7801 6.67069 35.6117 6.37607 35.6486C6.08672 35.6854 5.85523 35.9169 5.82367 36.2115C5.31335 40.9937 5.1187 42.7877 0.478507 44.6711C0.204935 44.7816 0.0418445 45.071 0.089193 45.3603C0.141804 45.655 0.383808 45.8759 0.683685 45.8917C4.79778 46.1232 6.30242 49.1903 8.12272 53.841C8.21742 54.0831 8.45416 54.2409 8.71195 54.2409C8.72773 54.2409 8.74352 54.2409 8.7593 54.2409C9.03813 54.2198 9.26962 54.0199 9.32749 53.7463C9.60106 52.5574 9.72206 51.4999 9.83254 50.5687C10.185 47.5752 10.3639 46.0706 14.6463 44.8027C14.8989 44.7238 15.083 44.4975 15.0988 44.2292C15.1146 43.9662 14.962 43.7189 14.7147 43.6137ZM8.57516 50.4214C8.53834 50.7108 8.50677 51.0159 8.46468 51.3263C7.09157 48.1697 5.58166 45.8391 2.78808 44.9763C5.4554 43.4822 6.28664 41.7092 6.7233 39.2102C7.38092 41.0463 8.42786 42.1511 12.7419 44.124C9.14335 45.6076 8.90134 47.6752 8.57516 50.4214Z" fill="#693B20"/>
</g>
</svg>
