<svg width="51" height="65" viewBox="0 0 51 65" fill="none" xmlns="http://www.w3.org/2000/svg">
<mask id="mask0_2214_47" style="mask-type:luminance" maskUnits="userSpaceOnUse" x="0" y="0" width="51" height="65">
<path d="M0 0H50.4896V64.349H0V0Z" fill="white"/>
</mask>
<g mask="url(#mask0_2214_47)">
<mask id="mask1_2214_47" style="mask-type:luminance" maskUnits="userSpaceOnUse" x="-1" y="0" width="53" height="66">
<path d="M51.4375 0H-0.5625V65.3333H51.4375V0Z" fill="white"/>
</mask>
<g mask="url(#mask1_2214_47)">
<mask id="mask2_2214_47" style="mask-type:luminance" maskUnits="userSpaceOnUse" x="0" y="0" width="51" height="64">
<path d="M0.338867 0H50.4899V64H0.338867V0Z" fill="white"/>
</mask>
<g mask="url(#mask2_2214_47)">
<path d="M12.9115 24.8647C12.948 24.5834 13.1719 24.3647 13.4532 24.3282C20.5313 23.4637 22.8438 17.1668 25.573 7.65637C25.6511 7.38032 25.9063 7.19803 26.1875 7.20324C26.474 7.20845 26.7188 7.41157 26.7865 7.68762C27.3177 9.96366 27.6042 12.0053 27.8594 13.8022C28.6927 19.7241 29.1563 22.9845 36.6563 25.1668C36.8959 25.2345 37.073 25.4428 37.1042 25.6928C37.1355 25.9428 37.0105 26.1876 36.7917 26.3126C26.474 32.2553 26.1198 34.0157 25.1771 38.7137C24.974 39.7189 24.7448 40.8647 24.3855 42.198C24.3125 42.4741 24.0625 42.6668 23.7813 42.6668C23.7657 42.6668 23.7552 42.6616 23.7396 42.6616C23.4427 42.6459 23.198 42.4168 23.1615 42.1199C21.9323 32.7762 21.4219 28.9064 13.2917 25.5314C13.0261 25.422 12.8698 25.1459 12.9115 24.8647ZM23.9323 38.5314C23.9375 38.5105 23.9427 38.4897 23.948 38.4637C24.8802 33.8387 25.323 31.6303 34.948 25.9376C27.9584 23.4949 27.4167 19.6407 26.6198 13.9793C26.4636 12.8803 26.2969 11.6928 26.0677 10.422C23.7709 18.0209 21.2917 23.5418 15.5573 25.1824C21.6563 28.2241 22.9688 32.0678 23.9323 38.5314ZM0.083371 51.2241C0.11983 50.9428 0.343788 50.7189 0.625038 50.6824C6.68233 49.8803 7.76046 46.0678 9.25004 40.7918C9.33858 40.4741 9.43233 40.1512 9.52608 39.823C9.6042 39.547 9.85941 39.3595 10.1459 39.3647C10.4323 39.3751 10.6771 39.573 10.7396 39.8491C11.0261 41.0626 11.1198 42.1512 11.2084 43.2085C11.323 44.5522 11.4323 45.8282 11.9271 47.2501C12.8125 49.8074 15.3282 50.5366 17.9844 51.3126C18.2292 51.3803 18.4011 51.5887 18.4323 51.8387C18.4636 52.0887 18.3438 52.3335 18.125 52.4585C17.4896 52.823 16.8646 53.1564 16.2552 53.4793C14.4844 54.4168 12.8125 55.3074 11.3594 56.8282C10.0105 58.2449 9.44795 60.4793 8.95316 62.448C8.86462 62.8126 8.77608 63.172 8.68233 63.5157C8.60941 63.7918 8.35941 63.9793 8.07816 63.9793C8.06254 63.9793 8.04691 63.9793 8.0365 63.9793C7.73441 63.9585 7.49483 63.7293 7.45316 63.4324C7.33337 62.5053 7.31775 61.6147 7.30212 60.7553C7.27087 59.0991 7.24483 57.5314 6.42712 56.0157C5.27087 53.8803 2.49483 52.7293 0.468788 51.8855C0.203163 51.7762 0.0469123 51.5053 0.083371 51.2241ZM7.53129 55.4168C8.24483 56.7449 8.44795 58.0782 8.51566 59.3907C8.95316 58.1303 9.5417 56.922 10.4532 55.9637C12.0417 54.297 13.8021 53.3595 15.6667 52.3699C15.8438 52.2762 16.0261 52.1824 16.2032 52.0835C13.9115 51.3491 11.6511 50.2814 10.7448 47.6616C10.198 46.0887 10.0782 44.6772 9.95837 43.3126L9.92712 42.9689C8.73962 46.9272 7.26566 50.2397 2.78129 51.521C4.599 52.3751 6.51566 53.547 7.53129 55.4168ZM15.8125 7.39074C11.8177 9.35949 11.6875 9.91678 11.3386 11.4012C11.2552 11.7553 11.1615 12.1564 11.0105 12.6355C10.9271 12.9012 10.6875 13.073 10.4115 13.073C10.3959 13.073 10.3802 13.073 10.3646 13.073C10.073 13.0522 9.83858 12.8334 9.7917 12.5418C9.31254 9.40116 9.13025 8.22407 6.06775 7.13553C5.7917 7.03657 5.61983 6.76053 5.65629 6.46886C5.69275 6.1772 5.92191 5.94803 6.21358 5.92199C8.8542 5.64595 9.70316 3.66157 10.7813 0.427198C10.8698 0.166782 11.125 -0.00509316 11.3959 0.000115173C11.6719 0.0105318 11.9115 0.198033 11.9844 0.463657C12.2032 1.27095 12.323 1.9897 12.4271 2.61991C12.7552 4.6147 12.9063 5.52616 15.6875 6.21886C15.9427 6.28137 16.1302 6.49491 16.1563 6.76053C16.1875 7.02095 16.0469 7.27095 15.8125 7.39074ZM11.2084 2.94803C10.5625 4.51053 9.68233 5.94282 8.13025 6.68241C9.54691 7.48449 10.1667 8.46366 10.5365 9.76574C10.9688 8.83866 11.7761 8.09907 13.9115 6.95324C11.7657 6.03137 11.4896 4.63553 11.2084 2.94803ZM36.2605 43.1772C42.4063 40.521 42.6459 39.6876 43.2865 37.4532C43.4323 36.948 43.599 36.3699 43.849 35.698C43.948 35.422 44.224 35.2553 44.5157 35.2918C44.8021 35.3282 45.0313 35.5574 45.0573 35.8439C45.5677 40.5834 45.7605 42.3543 50.3542 44.2241C50.625 44.3335 50.7865 44.6199 50.7344 44.9064C50.6875 45.198 50.448 45.4168 50.1511 45.4324C46.0782 45.6616 44.5886 48.6928 42.7865 53.3022C42.6927 53.5418 42.4584 53.698 42.2032 53.698C42.1875 53.698 42.1719 53.698 42.1563 53.698C41.8802 53.6772 41.6511 53.4793 41.5938 53.2085C41.323 52.0314 41.2032 50.9845 41.0938 50.0626C40.7396 47.0991 40.5677 45.6095 36.3282 44.3543C36.0782 44.2762 35.8959 44.0522 35.8802 43.7866C35.8646 43.5262 36.0157 43.2814 36.2605 43.1772ZM42.3386 49.9168C42.3698 50.2032 42.4063 50.5053 42.448 50.8126C43.8073 47.6876 45.3021 45.3803 48.0677 44.5262C45.4271 43.0418 44.6042 41.2918 44.1719 38.8178C43.5209 40.6355 42.4844 41.7293 38.2136 43.6824C41.7761 45.1512 42.0157 47.198 42.3386 49.9168Z" fill="#693B20"/>
</g>
</g>
</g>
</svg>
