<svg xmlns="http://www.w3.org/2000/svg" xmlns:xlink="http://www.w3.org/1999/xlink" width="174" zoomAndPan="magnify" viewBox="0 0 130.5 548.249984" height="731" preserveAspectRatio="xMidYMid meet" version="1.0"><defs><filter x="0%" y="0%" width="100%" height="100%" id="f4c9e2f63c"><feColorMatrix values="0 0 0 0 1 0 0 0 0 1 0 0 0 0 1 0 0 0 1 0" color-interpolation-filters="sRGB"/></filter><clipPath id="4f49d73b76"><path d="M 0 0.671875 L 118 0.671875 L 118 328 L 0 328 Z M 0 0.671875 " clip-rule="nonzero"/></clipPath><mask id="24ca0ed828"><g filter="url(#f4c9e2f63c)"><rect x="-13.05" width="156.6" fill="#000000" y="-54.824998" height="657.899981" fill-opacity="0.16"/></g></mask><clipPath id="c765a46d13"><path d="M 0 0.671875 L 117.300781 0.671875 L 117.300781 327.171875 L 0 327.171875 Z M 0 0.671875 " clip-rule="nonzero"/></clipPath><clipPath id="8f808c643e"><path d="M 0.1875 0.671875 L 117.300781 0.671875 L 117.300781 327 L 0.1875 327 Z M 0.1875 0.671875 " clip-rule="nonzero"/></clipPath><clipPath id="843c8d06a5"><rect x="0" width="118" y="0" height="328"/></clipPath><clipPath id="edab7a3add"><rect x="0" width="118" y="0" height="328"/></clipPath><clipPath id="6981f18184"><path d="M 11 219 L 130 219 L 130 546.832031 L 11 546.832031 Z M 11 219 " clip-rule="nonzero"/></clipPath><mask id="d75c016627"><g filter="url(#f4c9e2f63c)"><rect x="-13.05" width="156.6" fill="#000000" y="-54.824998" height="657.899981" fill-opacity="0.16"/></g></mask><clipPath id="56ce07a63b"><path d="M 0.800781 1.402344 L 118.101562 1.402344 L 118.101562 327.832031 L 0.800781 327.832031 Z M 0.800781 1.402344 " clip-rule="nonzero"/></clipPath><clipPath id="72463a8dd3"><path d="M 0.988281 0.402344 L 118 0.402344 L 118 326.832031 L 0.988281 326.832031 Z M 0.988281 0.402344 " clip-rule="nonzero"/></clipPath><clipPath id="ec68abd464"><rect x="0" width="119" y="0" height="327"/></clipPath><clipPath id="f34c35fba3"><rect x="0" width="119" y="0" height="328"/></clipPath></defs><g clip-path="url(#4f49d73b76)"><g mask="url(#24ca0ed828)"><g transform="matrix(1, 0, 0, 1, 0, 0.000000000000012768)"><g clip-path="url(#edab7a3add)"><g clip-path="url(#c765a46d13)"><g transform="matrix(1, 0, 0, 1, 0, 0.000000000000012768)"><g clip-path="url(#843c8d06a5)"><g clip-path="url(#8f808c643e)"><path fill="#ff751f" d="M 0.394531 114.894531 C 0.394531 114.179688 0.71875 113.265625 1.632812 113.332031 C 2.285156 113.394531 2.609375 114.046875 2.9375 114.570312 C 3.328125 115.285156 3.785156 115.9375 4.238281 116.589844 C 5.675781 118.480469 7.371094 120.175781 8.804688 122.003906 C 11.28125 125.390625 14.148438 128.457031 17.019531 131.519531 C 19.496094 134.390625 22.105469 137.0625 24.710938 139.800781 C 27.320312 142.734375 30.253906 145.734375 32.992188 148.667969 C 37.683594 154.46875 42.902344 159.945312 47.203125 166.074219 C 48.378906 167.640625 49.550781 169.269531 50.660156 170.898438 C 52.222656 173.179688 53.398438 175.722656 54.703125 178.199219 C 56.332031 181.003906 58.15625 183.742188 59.589844 186.675781 C 61.613281 190.328125 62.851562 194.433594 65.261719 197.890625 C 66.242188 199.257812 67.414062 200.5 68.523438 201.800781 C 68.261719 201.148438 67.9375 200.5 67.609375 199.847656 C 65.394531 195.414062 63.046875 190.980469 61.613281 186.21875 C 59.980469 180.222656 58.546875 174.222656 57.046875 168.160156 C 56.460938 165.683594 55.941406 163.140625 55.484375 160.664062 C 55.417969 159.554688 54.507812 157.535156 56.003906 157.078125 C 56.65625 156.945312 57.113281 157.46875 57.441406 157.925781 C 58.027344 158.839844 58.613281 159.75 59.199219 160.664062 C 61.417969 164.054688 63.113281 167.769531 65.003906 171.421875 C 71.328125 182.113281 77.714844 193.78125 77.0625 206.691406 C 77 208.515625 76.933594 210.601562 76.605469 212.496094 C 76.605469 212.625 76.542969 212.820312 76.542969 212.949219 C 81.824219 215.882812 86.910156 219.40625 90.949219 223.96875 C 91.144531 224.164062 91.601562 224.6875 92.1875 225.402344 C 91.929688 224.621094 91.601562 223.839844 91.277344 223.054688 C 88.601562 216.277344 85.539062 209.429688 83.0625 202.519531 C 80.78125 196.324219 78.953125 189.9375 76.933594 183.675781 C 73.933594 174.160156 70.933594 164.640625 69.632812 154.730469 C 69.042969 150.296875 68.847656 145.796875 68.71875 141.367188 C 65.71875 138.953125 62.980469 136.214844 60.308594 133.476562 C 57.960938 131 55.550781 128.652344 53.789062 125.71875 C 50.398438 119.917969 47.660156 113.394531 47.203125 106.617188 C 47.074219 104.726562 47.007812 102.835938 47.007812 100.878906 C 47.007812 100.488281 47.007812 100.097656 47.203125 99.707031 C 48.050781 98.464844 49.289062 99.707031 49.746094 100.554688 C 51.3125 102.898438 52.679688 105.507812 54.636719 107.660156 C 56.789062 110.136719 59.394531 112.679688 61.222656 115.546875 C 63.765625 119.328125 65.589844 123.5 66.894531 127.871094 C 67.546875 129.761719 68 131.652344 68.457031 133.605469 C 68.195312 127.152344 67.480469 120.632812 65.980469 114.308594 C 63.960938 106.226562 60.765625 98.53125 57.765625 90.773438 C 49.617188 70.042969 41.597656 53.21875 41.859375 30.207031 C 41.988281 22.316406 42.769531 14.429688 44.140625 6.671875 C 44.53125 4.910156 44.660156 3.019531 45.445312 1.390625 C 46.03125 0.671875 47.203125 0.671875 47.855469 1.257812 C 48.636719 1.976562 48.898438 3.019531 49.226562 3.996094 C 49.8125 5.691406 50.332031 7.453125 51.179688 9.019531 C 53.855469 13.515625 57.246094 17.492188 59.980469 21.992188 C 67.023438 33.074219 73.347656 44.679688 75.628906 57.523438 C 76.867188 63.976562 77.453125 70.5625 77.714844 77.148438 C 78.105469 86.144531 78.300781 95.140625 76.804688 104.074219 C 75.890625 108.441406 74.976562 112.808594 74.195312 117.242188 C 75.304688 114.832031 76.671875 112.484375 77.324219 109.875 C 78.824219 104.789062 79.800781 99.445312 81.628906 94.359375 C 83.519531 88.753906 85.539062 83.210938 87.167969 77.472656 C 91.539062 63.128906 96.492188 48.917969 100.859375 34.507812 C 102.097656 30.726562 102.945312 26.554688 104.054688 22.707031 C 104.445312 21.863281 105.621094 21.730469 106.140625 22.511719 C 106.859375 24.144531 107.117188 25.96875 107.640625 27.730469 C 108.554688 30.921875 109.402344 34.054688 110.054688 37.378906 C 112.59375 52.632812 113.378906 68.542969 109.074219 83.535156 C 106.921875 91.035156 103.273438 98.011719 99.492188 104.789062 C 96.492188 109.941406 93.558594 115.15625 89.648438 119.71875 C 84.367188 125.652344 77.976562 130.738281 73.542969 137.386719 C 72.566406 138.886719 72.042969 140.648438 71.585938 142.34375 C 71.523438 142.605469 71.457031 142.863281 71.261719 142.996094 C 71.390625 146.191406 71.523438 149.382812 71.914062 152.578125 C 72.371094 156.816406 73.21875 161.054688 74.195312 165.226562 C 76.085938 172.855469 78.5625 180.546875 80.910156 188.109375 C 82.800781 194.5 84.953125 200.824219 87.363281 207.082031 C 89.449219 212.492188 91.863281 217.773438 93.882812 223.25 C 94.015625 222.207031 94.144531 221.164062 94.144531 220.121094 C 94.144531 216.015625 94.210938 211.84375 94.015625 207.734375 C 93.558594 201.28125 93.558594 194.890625 93.558594 188.4375 C 93.492188 180.679688 93.6875 172.726562 95.578125 165.160156 C 99.035156 151.992188 105.816406 140.0625 109.921875 127.085938 C 110.183594 126.238281 110.445312 125.261719 110.769531 124.285156 C 110.964844 123.761719 111.097656 122.914062 111.617188 122.652344 C 113.769531 121.804688 113.183594 125.066406 113.441406 126.433594 C 114.03125 133.867188 115.984375 141.105469 116.703125 148.535156 C 117.355469 154.796875 117.09375 161.183594 116.375 167.445312 C 115.855469 172.007812 114.746094 176.441406 113.574219 180.875 C 112.269531 185.894531 110.898438 190.71875 108.945312 195.609375 C 106.46875 201.933594 103.535156 207.996094 100.925781 214.253906 C 99.621094 217.449219 98.316406 220.644531 97.144531 223.902344 C 96.558594 225.402344 96.230469 226.96875 95.644531 228.402344 C 103.402344 250.894531 105.75 275.40625 101.578125 298.8125 C 100.46875 305.332031 98.578125 311.59375 96.492188 317.851562 C 95.449219 320.785156 94.730469 323.914062 93.429688 326.71875 C 93.101562 327.042969 92.582031 327.042969 92.253906 326.78125 C 91.992188 326.523438 91.929688 326.128906 92.058594 325.804688 C 92.449219 324.761719 92.777344 323.71875 93.101562 322.675781 C 94.277344 318.960938 95.449219 315.242188 96.621094 311.527344 C 99.75 301.160156 101.25 290.207031 101.382812 279.386719 C 101.640625 262.957031 99.101562 246.527344 93.949219 230.945312 C 93.882812 230.878906 93.820312 230.75 93.753906 230.617188 C 87.234375 221.492188 80.257812 217.382812 70.738281 212.167969 C 58.351562 205.777344 45.769531 199.585938 34.554688 191.304688 C 31.492188 189.21875 28.753906 186.742188 26.144531 184.199219 C 23.667969 181.984375 21.320312 179.636719 19.300781 177.027344 C 15.257812 172.136719 11.476562 166.988281 9.128906 161.054688 C 4.109375 149.972656 0.199219 138.300781 0.132812 125.980469 C 0.261719 122.132812 0.199219 118.546875 0.394531 114.894531 Z M 66.699219 135.300781 C 66.304688 133.542969 65.914062 131.847656 65.457031 130.152344 C 63.960938 124.675781 61.742188 119.328125 58.222656 114.765625 C 55.941406 111.832031 53.136719 109.289062 51.050781 106.226562 C 50.269531 105.050781 49.550781 103.8125 48.832031 102.574219 C 48.769531 111.179688 51.769531 119.589844 56.722656 126.566406 C 59.917969 130.542969 63.632812 134.128906 67.285156 137.78125 C 67.089844 136.933594 66.894531 136.148438 66.699219 135.300781 Z M 47.464844 17.296875 C 47.074219 13.515625 47.203125 9.667969 46.941406 5.886719 C 46.941406 5.824219 46.941406 5.691406 46.941406 5.5625 C 43.945312 21.535156 43.160156 38.226562 47.203125 54.132812 C 50.269531 66.519531 55.613281 77.996094 60.113281 89.992188 C 64.023438 99.835938 68.066406 109.875 69.761719 120.371094 C 69.761719 119.914062 69.828125 119.460938 69.828125 119.003906 C 69.957031 115.351562 69.828125 111.636719 69.632812 107.984375 C 68.847656 96.574219 66.566406 85.167969 63.765625 74.082031 C 59.722656 61.566406 55.679688 49.113281 51.898438 36.53125 C 49.941406 30.140625 48.246094 23.816406 47.464844 17.296875 Z M 86.777344 119.460938 C 90.558594 115.417969 93.363281 110.59375 96.167969 105.832031 C 100.339844 98.53125 104.378906 91.164062 106.792969 83.082031 C 109.726562 72.976562 110.445312 62.28125 109.464844 51.851562 C 109.140625 47.546875 108.8125 43.246094 108.03125 38.941406 C 107.640625 36.792969 107.183594 34.703125 106.597656 32.554688 C 106.402344 36.726562 105.878906 40.964844 105.621094 45.136719 C 105.621094 45.203125 105.621094 45.203125 105.621094 45.265625 C 105.226562 53.546875 104.316406 61.890625 102.359375 69.976562 C 100.730469 76.820312 98.253906 83.40625 95.90625 89.992188 C 94.925781 92.792969 94.015625 95.664062 92.777344 98.464844 C 90.625 103.160156 87.820312 107.527344 85.214844 112.027344 C 82.539062 116.785156 80.453125 121.9375 77.976562 126.828125 C 77.195312 128.457031 76.214844 130.019531 75.304688 131.519531 C 78.824219 127.347656 82.996094 123.5 86.777344 119.460938 Z M 76.152344 125.914062 C 78.496094 121.15625 80.519531 116.132812 83.125 111.503906 C 85.539062 107.398438 88.015625 103.292969 90.167969 99.054688 C 91.339844 96.707031 92.253906 94.164062 93.101562 91.621094 C 94.472656 87.710938 95.96875 83.667969 97.339844 79.691406 C 100.273438 71.410156 102.097656 62.609375 103.011719 53.808594 C 103.535156 46.898438 104.054688 40.050781 104.707031 33.140625 C 104.773438 31.640625 104.902344 30.074219 104.902344 28.511719 C 100.597656 45.332031 94.277344 61.628906 89.320312 78.320312 C 87.429688 85.101562 84.820312 91.882812 82.734375 98.597656 C 81.367188 103.226562 80.519531 108.179688 78.890625 112.746094 C 78.171875 114.699219 77.0625 116.460938 76.214844 118.351562 C 75.304688 120.242188 74.976562 122.328125 74.324219 124.285156 C 73.542969 126.632812 72.304688 128.914062 71.847656 131.390625 C 71.78125 132.109375 71.71875 132.757812 71.71875 133.476562 C 73.21875 130.933594 74.847656 128.523438 76.152344 125.914062 Z M 71.328125 103.292969 C 71.71875 107.398438 71.976562 111.503906 71.976562 115.613281 C 72.5 112.941406 73.023438 110.265625 73.609375 107.660156 C 75.824219 98.269531 75.761719 88.753906 75.367188 79.101562 C 74.976562 65.019531 73.085938 50.742188 66.4375 38.09375 C 62.71875 30.597656 58.351562 23.359375 53.460938 16.515625 C 51.832031 14.234375 50.074219 11.953125 48.898438 9.410156 C 48.898438 9.34375 48.832031 9.34375 48.832031 9.277344 C 48.964844 11.105469 49.03125 12.929688 49.09375 14.753906 C 49.484375 20.492188 51.050781 26.164062 52.484375 31.707031 C 54.765625 39.269531 57.113281 46.765625 59.394531 54.265625 C 61.675781 61.761719 64.480469 69.195312 66.4375 76.820312 C 68.394531 85.492188 70.414062 94.292969 71.328125 103.292969 Z M 104.578125 201.148438 C 107.117188 195.414062 109.269531 189.546875 110.898438 183.417969 C 113.378906 174.746094 115.136719 165.878906 115.136719 156.882812 C 115.332031 150.296875 114.160156 143.84375 113.050781 137.386719 C 112.792969 139.800781 112.398438 142.148438 112.074219 144.558594 C 111.03125 154.339844 109.007812 163.988281 106.46875 173.507812 C 104.25 181.070312 102.621094 188.761719 101.96875 196.585938 C 101.316406 201.476562 100.992188 206.367188 100.207031 211.253906 C 101.640625 207.863281 103.140625 204.476562 104.578125 201.148438 Z M 96.425781 218.949219 C 96.558594 218.425781 96.6875 217.90625 96.816406 217.320312 C 97.664062 214.320312 98.253906 211.253906 98.578125 208.191406 C 99.492188 200.367188 100.011719 192.414062 101.578125 184.65625 C 102.425781 180.679688 103.46875 176.765625 104.578125 172.855469 C 105.945312 167.769531 107.054688 162.554688 108.097656 157.402344 C 109.007812 153.101562 109.53125 148.734375 110.117188 144.363281 C 110.703125 140.453125 111.421875 136.605469 111.683594 132.628906 C 111.746094 131.585938 111.8125 130.542969 111.8125 129.566406 C 111.8125 129.371094 111.746094 129.171875 111.746094 128.976562 C 108.164062 140.324219 102.488281 151.078125 98.839844 162.421875 C 95.90625 171.679688 95.90625 181.394531 95.96875 191.042969 C 95.773438 200.367188 96.621094 209.625 96.425781 218.949219 Z M 63.046875 198.867188 C 60.570312 195.21875 59.265625 190.980469 57.046875 187.132812 C 54.765625 182.960938 52.160156 178.917969 50.136719 174.617188 C 46.03125 167.574219 40.816406 161.316406 35.46875 155.1875 C 32.796875 151.730469 29.796875 148.472656 26.734375 145.40625 C 24.320312 142.667969 21.648438 139.800781 19.039062 137.128906 C 15.976562 133.542969 12.714844 130.21875 9.652344 126.566406 C 8.152344 124.609375 6.71875 122.523438 5.023438 120.699219 C 4.632812 120.242188 4.238281 119.785156 3.847656 119.328125 C 4.304688 121.089844 5.023438 122.851562 5.480469 124.675781 C 6.71875 128.585938 8.21875 132.367188 9.910156 136.085938 C 12.847656 142.800781 16.300781 149.1875 20.605469 155.121094 C 23.34375 158.96875 25.6875 162.878906 28.230469 166.921875 C 31.230469 171.421875 35.011719 175.265625 38.46875 179.441406 C 41.726562 183.15625 45.378906 186.480469 48.964844 189.804688 C 50.398438 191.109375 51.769531 192.480469 53.203125 193.78125 C 55.808594 196.128906 58.742188 198.019531 61.480469 200.238281 C 63.503906 201.800781 65.328125 203.5625 67.414062 205.0625 C 67.871094 205.324219 68.328125 205.648438 68.71875 205.910156 C 66.957031 203.496094 64.742188 201.34375 63.046875 198.867188 Z M 75.109375 210.667969 C 75.761719 200.042969 73.867188 192.542969 69.175781 182.960938 C 67.152344 178.851562 64.609375 175.070312 62.523438 170.964844 C 61.15625 168.160156 59.785156 165.292969 58.089844 162.621094 C 59.070312 167.117188 60.308594 171.617188 61.351562 176.113281 C 62.460938 180.089844 63.308594 184.132812 64.675781 187.980469 C 66.371094 192.609375 68.847656 196.914062 70.871094 201.410156 C 72.238281 204.539062 73.609375 207.605469 75.109375 210.667969 Z M 2.609375 131.195312 C 3.390625 138.234375 5.21875 145.40625 7.824219 152.058594 C 10.367188 158.1875 12.78125 164.769531 16.824219 170.246094 C 19.691406 174.09375 22.625 177.941406 26.210938 181.199219 C 29.863281 184.71875 33.578125 188.109375 37.816406 190.980469 C 44.464844 195.804688 51.832031 199.78125 59.003906 203.757812 C 62.460938 205.582031 66.046875 207.277344 69.5 209.105469 C 69.109375 208.777344 68.652344 208.453125 68.195312 208.125 C 66.371094 206.953125 64.480469 205.648438 62.851562 204.148438 C 60.046875 201.738281 56.984375 199.652344 54.113281 197.433594 C 49.484375 193.652344 45.3125 189.414062 40.945312 185.308594 C 36.640625 181.070312 32.859375 176.308594 28.949219 171.679688 C 25.101562 166.660156 22.234375 160.925781 18.519531 155.773438 C 12.519531 147.296875 8.085938 137.714844 4.566406 127.933594 C 3.785156 125.652344 3.132812 123.242188 2.480469 120.894531 C 2.414062 120.632812 2.347656 120.242188 2.152344 119.71875 C 2.285156 123.566406 2.285156 127.414062 2.609375 131.195312 Z M 2.609375 131.195312 " fill-opacity="1" fill-rule="nonzero"/></g></g></g></g></g></g></g></g><g clip-path="url(#6981f18184)"><g mask="url(#d75c016627)"><g transform="matrix(1, 0, 0, 1, 11, 219)"><g clip-path="url(#f34c35fba3)"><g clip-path="url(#56ce07a63b)"><g transform="matrix(1, 0, 0, 1, -0.000000000000001776, 1)"><g clip-path="url(#ec68abd464)"><g clip-path="url(#72463a8dd3)"><path fill="#ff751f" d="M 1.195312 114.625 C 1.195312 113.910156 1.523438 112.996094 2.433594 113.0625 C 3.085938 113.128906 3.414062 113.777344 3.738281 114.300781 C 4.128906 115.019531 4.585938 115.667969 5.042969 116.320312 C 6.476562 118.210938 8.171875 119.90625 9.605469 121.734375 C 12.082031 125.121094 14.953125 128.1875 17.820312 131.25 C 20.296875 134.121094 22.90625 136.792969 25.515625 139.53125 C 28.121094 142.464844 31.054688 145.464844 33.792969 148.398438 C 38.488281 154.199219 43.703125 159.675781 48.007812 165.804688 C 49.179688 167.371094 50.355469 169 51.460938 170.628906 C 53.027344 172.910156 54.199219 175.453125 55.503906 177.933594 C 57.132812 180.734375 58.960938 183.472656 60.394531 186.40625 C 62.414062 190.058594 63.652344 194.164062 66.066406 197.621094 C 67.042969 198.988281 68.21875 200.230469 69.324219 201.53125 C 69.066406 200.878906 68.738281 200.230469 68.414062 199.578125 C 66.195312 195.144531 63.847656 190.710938 62.414062 185.949219 C 60.785156 179.953125 59.351562 173.953125 57.851562 167.890625 C 57.265625 165.414062 56.742188 162.871094 56.285156 160.394531 C 56.222656 159.285156 55.308594 157.265625 56.808594 156.808594 C 57.460938 156.679688 57.917969 157.199219 58.242188 157.65625 C 58.828125 158.570312 59.414062 159.480469 60.003906 160.394531 C 62.21875 163.785156 63.914062 167.5 65.804688 171.152344 C 72.128906 181.84375 78.519531 193.511719 77.867188 206.421875 C 77.800781 208.246094 77.734375 210.335938 77.410156 212.226562 C 77.410156 212.355469 77.34375 212.550781 77.34375 212.679688 C 82.625 215.613281 87.710938 219.136719 91.753906 223.699219 C 91.949219 223.894531 92.40625 224.417969 92.992188 225.132812 C 92.730469 224.351562 92.40625 223.570312 92.078125 222.785156 C 89.40625 216.007812 86.34375 209.160156 83.863281 202.25 C 81.582031 196.054688 79.757812 189.667969 77.734375 183.40625 C 74.738281 173.890625 71.738281 164.371094 70.433594 154.460938 C 69.847656 150.027344 69.652344 145.53125 69.519531 141.097656 C 66.523438 138.683594 63.785156 135.945312 61.109375 133.207031 C 58.765625 130.730469 56.351562 128.382812 54.589844 125.449219 C 51.203125 119.648438 48.464844 113.128906 48.007812 106.347656 C 47.875 104.457031 47.8125 102.566406 47.8125 100.609375 C 47.8125 100.21875 47.8125 99.828125 48.007812 99.4375 C 48.855469 98.195312 50.09375 99.4375 50.550781 100.285156 C 52.113281 102.628906 53.484375 105.238281 55.4375 107.390625 C 57.589844 109.867188 60.199219 112.410156 62.023438 115.277344 C 64.566406 119.058594 66.390625 123.230469 67.695312 127.601562 C 68.347656 129.492188 68.804688 131.382812 69.261719 133.335938 C 69 126.882812 68.28125 120.363281 66.78125 114.039062 C 64.761719 105.957031 61.566406 98.261719 58.570312 90.503906 C 50.417969 69.773438 42.398438 52.953125 42.660156 29.9375 C 42.789062 22.046875 43.574219 14.160156 44.941406 6.402344 C 45.332031 4.640625 45.464844 2.75 46.246094 1.121094 C 46.832031 0.402344 48.007812 0.402344 48.660156 0.988281 C 49.441406 1.707031 49.703125 2.75 50.027344 3.726562 C 50.613281 5.421875 51.136719 7.183594 51.984375 8.75 C 54.65625 13.246094 58.046875 17.222656 60.785156 21.722656 C 67.828125 32.804688 74.148438 44.410156 76.433594 57.253906 C 77.671875 63.707031 78.257812 70.292969 78.519531 76.878906 C 78.910156 85.875 79.105469 94.871094 77.605469 103.804688 C 76.691406 108.171875 75.78125 112.539062 74.996094 116.972656 C 76.105469 114.5625 77.476562 112.214844 78.128906 109.605469 C 79.625 104.519531 80.605469 99.175781 82.429688 94.089844 C 84.320312 88.484375 86.34375 82.941406 87.972656 77.203125 C 92.339844 62.859375 97.292969 48.648438 101.664062 34.238281 C 102.902344 30.457031 103.75 26.285156 104.859375 22.441406 C 105.25 21.59375 106.421875 21.460938 106.945312 22.242188 C 107.660156 23.875 107.921875 25.699219 108.441406 27.460938 C 109.355469 30.652344 110.203125 33.785156 110.855469 37.109375 C 113.398438 52.363281 114.179688 68.273438 109.878906 83.265625 C 107.726562 90.765625 104.074219 97.742188 100.292969 104.519531 C 97.292969 109.671875 94.359375 114.886719 90.449219 119.449219 C 85.167969 125.382812 78.777344 130.46875 74.347656 137.117188 C 73.367188 138.617188 72.847656 140.378906 72.390625 142.074219 C 72.324219 142.335938 72.257812 142.59375 72.0625 142.726562 C 72.195312 145.921875 72.324219 149.113281 72.714844 152.308594 C 73.171875 156.546875 74.019531 160.785156 74.996094 164.957031 C 76.886719 172.585938 79.367188 180.277344 81.714844 187.839844 C 83.605469 194.230469 85.753906 200.554688 88.167969 206.8125 C 90.253906 212.226562 92.664062 217.503906 94.6875 222.980469 C 94.816406 221.9375 94.949219 220.894531 94.949219 219.851562 C 94.949219 215.746094 95.011719 211.574219 94.816406 207.464844 C 94.359375 201.011719 94.359375 194.621094 94.359375 188.167969 C 94.296875 180.410156 94.492188 172.457031 96.382812 164.890625 C 99.835938 151.722656 106.617188 139.792969 110.726562 126.816406 C 110.984375 125.96875 111.246094 124.992188 111.574219 124.015625 C 111.769531 123.492188 111.898438 122.644531 112.421875 122.386719 C 114.570312 121.539062 113.984375 124.796875 114.246094 126.167969 C 114.832031 133.597656 116.789062 140.835938 117.503906 148.265625 C 118.15625 154.527344 117.898438 160.914062 117.179688 167.175781 C 116.65625 171.738281 115.550781 176.171875 114.375 180.605469 C 113.070312 185.625 111.703125 190.449219 109.746094 195.339844 C 107.269531 201.664062 104.335938 207.726562 101.726562 213.984375 C 100.425781 217.179688 99.121094 220.375 97.945312 223.632812 C 97.359375 225.132812 97.035156 226.699219 96.445312 228.132812 C 104.207031 250.625 106.550781 275.140625 102.378906 298.542969 C 101.273438 305.0625 99.382812 311.324219 97.292969 317.582031 C 96.25 320.515625 95.535156 323.644531 94.230469 326.449219 C 93.90625 326.773438 93.382812 326.773438 93.058594 326.511719 C 92.796875 326.253906 92.730469 325.859375 92.863281 325.535156 C 93.253906 324.492188 93.578125 323.449219 93.90625 322.40625 C 95.078125 318.691406 96.25 314.972656 97.425781 311.257812 C 100.554688 300.890625 102.054688 289.9375 102.183594 279.117188 C 102.445312 262.6875 99.902344 246.257812 94.753906 230.675781 C 94.6875 230.609375 94.621094 230.480469 94.554688 230.347656 C 88.035156 221.222656 81.0625 217.113281 71.542969 211.898438 C 59.15625 205.507812 46.574219 199.316406 35.359375 191.035156 C 32.292969 188.949219 29.554688 186.472656 26.949219 183.929688 C 24.472656 181.714844 22.125 179.367188 20.101562 176.757812 C 16.0625 171.867188 12.277344 166.71875 9.933594 160.785156 C 4.914062 149.703125 1 138.03125 0.933594 125.710938 C 1.066406 121.863281 1 118.277344 1.195312 114.625 Z M 67.5 135.03125 C 67.109375 133.273438 66.71875 131.578125 66.261719 129.882812 C 64.761719 124.40625 62.546875 119.058594 59.023438 114.496094 C 56.742188 111.5625 53.941406 109.019531 51.851562 105.957031 C 51.070312 104.78125 50.355469 103.542969 49.636719 102.304688 C 49.570312 110.910156 52.570312 119.320312 57.523438 126.296875 C 60.71875 130.273438 64.4375 133.859375 68.085938 137.511719 C 67.890625 136.664062 67.695312 135.878906 67.5 135.03125 Z M 48.265625 17.027344 C 47.875 13.246094 48.007812 9.398438 47.746094 5.617188 C 47.746094 5.554688 47.746094 5.421875 47.746094 5.292969 C 44.746094 21.265625 43.964844 37.957031 48.007812 53.863281 C 51.070312 66.25 56.417969 77.726562 60.914062 89.722656 C 64.828125 99.566406 68.871094 109.605469 70.5625 120.101562 C 70.5625 119.648438 70.628906 119.191406 70.628906 118.734375 C 70.761719 115.082031 70.628906 111.367188 70.433594 107.714844 C 69.652344 96.304688 67.371094 84.898438 64.566406 73.8125 C 60.523438 61.296875 56.480469 48.84375 52.699219 36.261719 C 50.746094 29.871094 49.050781 23.546875 48.265625 17.027344 Z M 87.582031 119.191406 C 91.363281 115.148438 94.164062 110.324219 96.96875 105.5625 C 101.140625 98.261719 105.183594 90.894531 107.59375 82.8125 C 110.53125 72.707031 111.246094 62.011719 110.269531 51.582031 C 109.941406 47.277344 109.617188 42.976562 108.835938 38.671875 C 108.441406 36.523438 107.988281 34.4375 107.398438 32.285156 C 107.203125 36.457031 106.683594 40.695312 106.421875 44.867188 C 106.421875 44.933594 106.421875 44.933594 106.421875 44.996094 C 106.03125 53.277344 105.117188 61.621094 103.164062 69.707031 C 101.53125 76.550781 99.054688 83.136719 96.707031 89.722656 C 95.730469 92.523438 94.816406 95.394531 93.578125 98.195312 C 91.425781 102.890625 88.625 107.257812 86.015625 111.757812 C 83.34375 116.515625 81.257812 121.667969 78.777344 126.558594 C 77.996094 128.1875 77.019531 129.75 76.105469 131.25 C 79.625 127.078125 83.800781 123.230469 87.582031 119.191406 Z M 76.953125 125.644531 C 79.300781 120.886719 81.320312 115.863281 83.929688 111.234375 C 86.34375 107.128906 88.820312 103.023438 90.972656 98.785156 C 92.144531 96.4375 93.058594 93.894531 93.90625 91.351562 C 95.273438 87.441406 96.773438 83.398438 98.140625 79.421875 C 101.074219 71.140625 102.902344 62.339844 103.8125 53.539062 C 104.335938 46.628906 104.859375 39.78125 105.507812 32.871094 C 105.574219 31.371094 105.703125 29.804688 105.703125 28.242188 C 101.402344 45.0625 95.078125 61.363281 90.125 78.050781 C 88.234375 84.832031 85.625 91.613281 83.539062 98.328125 C 82.167969 102.957031 81.320312 107.910156 79.691406 112.476562 C 78.976562 114.429688 77.867188 116.191406 77.019531 118.082031 C 76.105469 119.972656 75.78125 122.058594 75.128906 124.015625 C 74.347656 126.363281 73.105469 128.644531 72.652344 131.121094 C 72.585938 131.839844 72.519531 132.488281 72.519531 133.207031 C 74.019531 130.664062 75.648438 128.253906 76.953125 125.644531 Z M 72.128906 103.023438 C 72.519531 107.128906 72.78125 111.234375 72.78125 115.34375 C 73.300781 112.671875 73.824219 109.996094 74.410156 107.390625 C 76.628906 98 76.5625 88.484375 76.171875 78.832031 C 75.78125 64.75 73.890625 50.472656 67.238281 37.824219 C 63.523438 30.328125 59.15625 23.089844 54.265625 16.246094 C 52.636719 13.964844 50.875 11.683594 49.703125 9.140625 C 49.703125 9.074219 49.636719 9.074219 49.636719 9.007812 C 49.765625 10.835938 49.832031 12.660156 49.898438 14.484375 C 50.289062 20.222656 51.851562 25.894531 53.289062 31.4375 C 55.570312 39 57.917969 46.496094 60.199219 53.996094 C 62.480469 61.492188 65.285156 68.925781 67.238281 76.550781 C 69.195312 85.222656 71.214844 94.023438 72.128906 103.023438 Z M 105.378906 200.878906 C 107.921875 195.144531 110.074219 189.277344 111.703125 183.148438 C 114.179688 174.476562 115.941406 165.609375 115.941406 156.613281 C 116.136719 150.027344 114.960938 143.574219 113.855469 137.117188 C 113.59375 139.53125 113.203125 141.878906 112.875 144.289062 C 111.832031 154.070312 109.8125 163.71875 107.269531 173.238281 C 105.054688 180.800781 103.421875 188.492188 102.769531 196.316406 C 102.121094 201.207031 101.792969 206.097656 101.011719 210.984375 C 102.445312 207.597656 103.945312 204.207031 105.378906 200.878906 Z M 97.230469 218.679688 C 97.359375 218.15625 97.492188 217.636719 97.621094 217.050781 C 98.46875 214.050781 99.054688 210.984375 99.382812 207.921875 C 100.292969 200.097656 100.816406 192.144531 102.378906 184.386719 C 103.226562 180.410156 104.269531 176.496094 105.378906 172.585938 C 106.75 167.5 107.855469 162.285156 108.898438 157.132812 C 109.8125 152.832031 110.332031 148.464844 110.921875 144.09375 C 111.507812 140.183594 112.222656 136.335938 112.484375 132.359375 C 112.550781 131.316406 112.617188 130.273438 112.617188 129.296875 C 112.617188 129.101562 112.550781 128.90625 112.550781 128.707031 C 108.964844 140.054688 103.292969 150.808594 99.640625 162.152344 C 96.707031 171.410156 96.707031 181.125 96.773438 190.773438 C 96.578125 200.097656 97.425781 209.355469 97.230469 218.679688 Z M 63.847656 198.597656 C 61.371094 194.949219 60.066406 190.710938 57.851562 186.863281 C 55.570312 182.691406 52.960938 178.648438 50.941406 174.347656 C 46.832031 167.304688 41.617188 161.046875 36.269531 154.917969 C 33.597656 151.460938 30.597656 148.203125 27.535156 145.136719 C 25.121094 142.398438 22.449219 139.53125 19.84375 136.859375 C 16.777344 133.273438 13.519531 129.949219 10.453125 126.296875 C 8.953125 124.339844 7.519531 122.253906 5.824219 120.429688 C 5.433594 119.972656 5.042969 119.515625 4.652344 119.058594 C 5.109375 120.820312 5.824219 122.582031 6.28125 124.40625 C 7.519531 128.316406 9.019531 132.097656 10.714844 135.816406 C 13.648438 142.53125 17.105469 148.917969 21.40625 154.851562 C 24.144531 158.699219 26.492188 162.609375 29.035156 166.652344 C 32.035156 171.152344 35.816406 174.996094 39.269531 179.171875 C 42.53125 182.886719 46.179688 186.210938 49.765625 189.535156 C 51.203125 190.839844 52.570312 192.210938 54.003906 193.511719 C 56.613281 195.859375 59.546875 197.75 62.285156 199.96875 C 64.304688 201.53125 66.132812 203.292969 68.21875 204.792969 C 68.671875 205.054688 69.128906 205.378906 69.519531 205.640625 C 67.761719 203.226562 65.542969 201.078125 63.847656 198.597656 Z M 75.910156 210.398438 C 76.5625 199.773438 74.671875 192.273438 69.976562 182.691406 C 67.957031 178.582031 65.414062 174.800781 63.328125 170.695312 C 61.957031 167.890625 60.589844 165.023438 58.894531 162.351562 C 59.871094 166.847656 61.109375 171.347656 62.152344 175.84375 C 63.261719 179.824219 64.109375 183.863281 65.480469 187.710938 C 67.175781 192.339844 69.652344 196.644531 71.671875 201.140625 C 73.042969 204.269531 74.410156 207.335938 75.910156 210.398438 Z M 3.414062 130.925781 C 4.195312 137.964844 6.019531 145.136719 8.628906 151.789062 C 11.171875 157.917969 13.582031 164.5 17.625 169.976562 C 20.492188 173.824219 23.429688 177.671875 27.011719 180.929688 C 30.664062 184.453125 34.378906 187.839844 38.617188 190.710938 C 45.269531 195.535156 52.636719 199.511719 59.808594 203.488281 C 63.261719 205.3125 66.847656 207.007812 70.304688 208.835938 C 69.914062 208.507812 69.457031 208.183594 69 207.855469 C 67.175781 206.683594 65.285156 205.378906 63.652344 203.878906 C 60.851562 201.46875 57.785156 199.382812 54.917969 197.164062 C 50.289062 193.382812 46.117188 189.144531 41.746094 185.039062 C 37.445312 180.800781 33.664062 176.042969 29.75 171.414062 C 25.90625 166.390625 23.035156 160.65625 19.320312 155.503906 C 13.324219 147.027344 8.890625 137.445312 5.367188 127.664062 C 4.585938 125.382812 3.933594 122.972656 3.28125 120.625 C 3.21875 120.363281 3.152344 119.972656 2.957031 119.449219 C 3.085938 123.296875 3.085938 127.144531 3.414062 130.925781 Z M 3.414062 130.925781 " fill-opacity="1" fill-rule="nonzero"/></g></g></g></g></g></g></g></g></svg>