<svg xmlns="http://www.w3.org/2000/svg" xmlns:xlink="http://www.w3.org/1999/xlink" width="174" zoomAndPan="magnify" viewBox="0 0 130.5 548.249984" height="731" preserveAspectRatio="xMidYMid meet" version="1.0"><defs><filter x="0%" y="0%" width="100%" height="100%" id="b81eb6e60d"><feColorMatrix values="0 0 0 0 1 0 0 0 0 1 0 0 0 0 1 0 0 0 1 0" color-interpolation-filters="sRGB"/></filter><clipPath id="5be23a68eb"><path d="M 0 0.671875 L 118 0.671875 L 118 328 L 0 328 Z M 0 0.671875 " clip-rule="nonzero"/></clipPath><mask id="462a661d17"><g filter="url(#b81eb6e60d)"><rect x="-13.05" width="156.6" fill="#000000" y="-54.824998" height="657.899981" fill-opacity="0.16"/></g></mask><clipPath id="e8768e6010"><path d="M 0.238281 0.671875 L 117.300781 0.671875 L 117.300781 327 L 0.238281 327 Z M 0.238281 0.671875 " clip-rule="nonzero"/></clipPath><clipPath id="25078e0ab0"><rect x="0" width="118" y="0" height="328"/></clipPath><clipPath id="0b14fe3004"><path d="M 11 219 L 130 219 L 130 546.832031 L 11 546.832031 Z M 11 219 " clip-rule="nonzero"/></clipPath><mask id="1ee77a571a"><g filter="url(#b81eb6e60d)"><rect x="-13.05" width="156.6" fill="#000000" y="-54.824998" height="657.899981" fill-opacity="0.16"/></g></mask><clipPath id="af78b60310"><path d="M 1 1.402344 L 118.101562 1.402344 L 118.101562 327.832031 L 1 327.832031 Z M 1 1.402344 " clip-rule="nonzero"/></clipPath><clipPath id="379a3c50d0"><rect x="0" width="119" y="0" height="328"/></clipPath></defs><g clip-path="url(#5be23a68eb)"><g mask="url(#462a661d17)"><g transform="matrix(1, 0, 0, 1, 0, 0.000000000000012768)"><g clip-path="url(#25078e0ab0)"><g clip-path="url(#e8768e6010)"><path fill="#ff751f" d="M 117.09375 114.894531 C 117.09375 114.179688 116.769531 113.265625 115.855469 113.332031 C 115.203125 113.394531 114.878906 114.046875 114.550781 114.570312 C 114.160156 115.285156 113.703125 115.9375 113.246094 116.589844 C 111.8125 118.480469 110.117188 120.175781 108.683594 122.003906 C 106.207031 125.390625 103.335938 128.457031 100.46875 131.519531 C 97.992188 134.390625 95.382812 137.0625 92.777344 139.800781 C 90.167969 142.734375 87.234375 145.734375 84.496094 148.667969 C 79.800781 154.46875 74.585938 159.945312 70.285156 166.074219 C 69.109375 167.640625 67.9375 169.269531 66.828125 170.898438 C 65.261719 173.179688 64.089844 175.722656 62.785156 178.199219 C 61.15625 181.003906 59.332031 183.742188 57.894531 186.675781 C 55.875 190.328125 54.636719 194.433594 52.222656 197.890625 C 51.246094 199.257812 50.074219 200.5 48.964844 201.800781 C 49.226562 201.148438 49.550781 200.5 49.878906 199.847656 C 52.09375 195.414062 54.441406 190.980469 55.875 186.21875 C 57.503906 180.222656 58.9375 174.222656 60.4375 168.160156 C 61.027344 165.683594 61.546875 163.140625 62.003906 160.664062 C 62.070312 159.554688 62.980469 157.535156 61.480469 157.078125 C 60.828125 156.945312 60.375 157.46875 60.046875 157.925781 C 59.460938 158.839844 58.875 159.75 58.289062 160.664062 C 56.070312 164.054688 54.375 167.769531 52.484375 171.421875 C 46.160156 182.113281 39.773438 193.78125 40.421875 206.691406 C 40.488281 208.515625 40.554688 210.601562 40.878906 212.496094 C 40.878906 212.625 40.945312 212.820312 40.945312 212.949219 C 35.664062 215.882812 30.578125 219.40625 26.535156 223.96875 C 26.339844 224.164062 25.886719 224.6875 25.296875 225.402344 C 25.558594 224.621094 25.886719 223.839844 26.210938 223.054688 C 28.882812 216.277344 31.949219 209.429688 34.425781 202.519531 C 36.707031 196.324219 38.53125 189.9375 40.554688 183.675781 C 43.554688 174.160156 46.550781 164.640625 47.855469 154.730469 C 48.441406 150.296875 48.636719 145.796875 48.769531 141.367188 C 51.769531 138.953125 54.507812 136.214844 57.179688 133.476562 C 59.527344 131 61.9375 128.652344 63.699219 125.71875 C 67.089844 119.917969 69.828125 113.394531 70.285156 106.617188 C 70.414062 104.726562 70.480469 102.835938 70.480469 100.878906 C 70.480469 100.488281 70.480469 100.097656 70.285156 99.707031 C 69.4375 98.464844 68.195312 99.707031 67.742188 100.554688 C 66.175781 102.898438 64.808594 105.507812 62.851562 107.660156 C 60.699219 110.136719 58.089844 112.679688 56.265625 115.546875 C 53.722656 119.328125 51.898438 123.5 50.59375 127.871094 C 49.941406 129.761719 49.484375 131.652344 49.03125 133.605469 C 49.289062 127.152344 50.007812 120.632812 51.507812 114.308594 C 53.527344 106.226562 56.722656 98.53125 59.722656 90.773438 C 67.871094 70.042969 75.890625 53.21875 75.628906 30.207031 C 75.5 22.316406 74.714844 14.429688 73.347656 6.671875 C 72.957031 4.910156 72.824219 3.019531 72.042969 1.390625 C 71.457031 0.671875 70.285156 0.671875 69.632812 1.257812 C 68.847656 1.976562 68.589844 3.019531 68.261719 3.996094 C 67.675781 5.691406 67.152344 7.453125 66.304688 9.019531 C 63.632812 13.515625 60.242188 17.492188 57.503906 21.992188 C 50.464844 33.074219 44.140625 44.679688 41.859375 57.523438 C 40.621094 63.976562 40.03125 70.5625 39.773438 77.148438 C 39.378906 86.144531 39.183594 95.140625 40.683594 104.074219 C 41.597656 108.441406 42.511719 112.808594 43.292969 117.242188 C 42.183594 114.832031 40.816406 112.484375 40.164062 109.875 C 38.664062 104.789062 37.683594 99.445312 35.859375 94.359375 C 33.96875 88.753906 31.949219 83.210938 30.316406 77.472656 C 25.949219 63.128906 20.996094 48.917969 16.628906 34.507812 C 15.386719 30.726562 14.539062 26.554688 13.433594 22.707031 C 13.042969 21.863281 11.867188 21.730469 11.347656 22.511719 C 10.628906 24.144531 10.367188 25.96875 9.847656 27.730469 C 8.933594 30.921875 8.085938 34.054688 7.433594 37.378906 C 4.890625 52.632812 4.109375 68.542969 8.414062 83.535156 C 10.5625 91.035156 14.214844 98.011719 17.996094 104.789062 C 20.996094 109.941406 23.929688 115.15625 27.839844 119.71875 C 33.121094 125.652344 39.511719 130.738281 43.945312 137.386719 C 44.921875 138.886719 45.445312 140.648438 45.898438 142.34375 C 45.964844 142.605469 46.03125 142.863281 46.226562 142.996094 C 46.09375 146.191406 45.964844 149.382812 45.574219 152.578125 C 45.117188 156.816406 44.269531 161.054688 43.292969 165.226562 C 41.402344 172.855469 38.925781 180.546875 36.578125 188.109375 C 34.6875 194.5 32.535156 200.824219 30.121094 207.082031 C 28.035156 212.492188 25.625 217.773438 23.601562 223.25 C 23.472656 222.207031 23.34375 221.164062 23.34375 220.121094 C 23.34375 216.015625 23.277344 211.84375 23.472656 207.734375 C 23.929688 201.28125 23.929688 194.890625 23.929688 188.4375 C 23.996094 180.679688 23.796875 172.726562 21.90625 165.160156 C 18.453125 151.992188 11.671875 140.0625 7.566406 127.085938 C 7.304688 126.238281 7.042969 125.261719 6.71875 124.285156 C 6.523438 123.761719 6.390625 122.914062 5.871094 122.652344 C 3.71875 121.804688 4.304688 125.066406 4.042969 126.433594 C 3.457031 133.867188 1.5 141.105469 0.785156 148.535156 C 0.132812 154.796875 0.394531 161.183594 1.109375 167.445312 C 1.632812 172.007812 2.742188 176.441406 3.914062 180.875 C 5.21875 185.894531 6.585938 190.71875 8.542969 195.609375 C 11.019531 201.933594 13.953125 207.996094 16.5625 214.253906 C 17.867188 217.449219 19.167969 220.644531 20.34375 223.902344 C 20.929688 225.402344 21.257812 226.96875 21.84375 228.402344 C 14.085938 250.894531 11.738281 275.40625 15.910156 298.8125 C 17.019531 305.332031 18.910156 311.59375 20.996094 317.851562 C 22.039062 320.785156 22.753906 323.914062 24.058594 326.71875 C 24.386719 327.042969 24.90625 327.042969 25.234375 326.78125 C 25.492188 326.523438 25.558594 326.128906 25.429688 325.804688 C 25.039062 324.761719 24.710938 323.71875 24.386719 322.675781 C 23.210938 318.960938 22.039062 315.242188 20.863281 311.527344 C 17.734375 301.160156 16.234375 290.207031 16.105469 279.386719 C 15.84375 262.957031 18.386719 246.527344 23.539062 230.945312 C 23.601562 230.878906 23.667969 230.75 23.734375 230.617188 C 30.253906 221.492188 37.230469 217.382812 46.746094 212.167969 C 59.136719 205.777344 71.71875 199.585938 82.929688 191.304688 C 85.996094 189.21875 88.734375 186.742188 91.339844 184.199219 C 93.820312 181.984375 96.167969 179.636719 98.1875 177.027344 C 102.230469 172.136719 106.011719 166.988281 108.359375 161.054688 C 113.378906 149.972656 117.289062 138.300781 117.355469 125.980469 C 117.222656 122.132812 117.289062 118.546875 117.09375 114.894531 Z M 50.789062 135.300781 C 51.179688 133.542969 51.570312 131.847656 52.027344 130.152344 C 53.527344 124.675781 55.746094 119.328125 59.265625 114.765625 C 61.546875 111.832031 64.351562 109.289062 66.4375 106.226562 C 67.21875 105.050781 67.9375 103.8125 68.652344 102.574219 C 68.71875 111.179688 65.71875 119.589844 60.765625 126.566406 C 57.570312 130.542969 53.855469 134.128906 50.203125 137.78125 C 50.398438 136.933594 50.59375 136.148438 50.789062 135.300781 Z M 70.023438 17.296875 C 70.414062 13.515625 70.285156 9.667969 70.542969 5.886719 C 70.542969 5.824219 70.542969 5.691406 70.542969 5.5625 C 73.542969 21.535156 74.324219 38.226562 70.285156 54.132812 C 67.21875 66.519531 61.875 77.996094 57.375 89.992188 C 53.460938 99.835938 49.421875 109.875 47.726562 120.371094 C 47.726562 119.914062 47.660156 119.460938 47.660156 119.003906 C 47.53125 115.351562 47.660156 111.636719 47.855469 107.984375 C 48.636719 96.574219 50.921875 85.167969 53.722656 74.082031 C 57.765625 61.566406 61.808594 49.113281 65.589844 36.53125 C 67.546875 30.140625 69.238281 23.816406 70.023438 17.296875 Z M 30.710938 119.460938 C 26.929688 115.417969 24.125 110.59375 21.320312 105.832031 C 17.148438 98.53125 13.105469 91.164062 10.695312 83.082031 C 7.761719 72.976562 7.042969 62.28125 8.019531 51.851562 C 8.347656 47.546875 8.671875 43.246094 9.457031 38.941406 C 9.847656 36.792969 10.304688 34.703125 10.890625 32.554688 C 11.085938 36.726562 11.605469 40.964844 11.867188 45.136719 C 11.867188 45.203125 11.867188 45.203125 11.867188 45.265625 C 12.257812 53.546875 13.171875 61.890625 15.128906 69.976562 C 16.757812 76.820312 19.234375 83.40625 21.582031 89.992188 C 22.558594 92.792969 23.472656 95.664062 24.710938 98.464844 C 26.863281 103.160156 29.667969 107.527344 32.273438 112.027344 C 34.945312 116.785156 37.035156 121.9375 39.511719 126.828125 C 40.292969 128.457031 41.269531 130.019531 42.183594 131.519531 C 38.664062 127.347656 34.492188 123.5 30.710938 119.460938 Z M 41.335938 125.914062 C 38.988281 121.15625 36.96875 116.132812 34.359375 111.503906 C 31.949219 107.398438 29.472656 103.292969 27.320312 99.054688 C 26.144531 96.707031 25.234375 94.164062 24.386719 91.621094 C 23.015625 87.710938 21.515625 83.667969 20.148438 79.691406 C 17.214844 71.410156 15.386719 62.609375 14.476562 53.808594 C 13.953125 46.898438 13.433594 40.050781 12.78125 33.140625 C 12.714844 31.640625 12.585938 30.074219 12.585938 28.511719 C 16.886719 45.332031 23.210938 61.628906 28.167969 78.320312 C 30.058594 85.101562 32.664062 91.882812 34.75 98.597656 C 36.121094 103.226562 36.96875 108.179688 38.597656 112.746094 C 39.316406 114.699219 40.421875 116.460938 41.269531 118.351562 C 42.183594 120.242188 42.511719 122.328125 43.160156 124.285156 C 43.945312 126.632812 45.183594 128.914062 45.640625 131.390625 C 45.703125 132.109375 45.769531 132.757812 45.769531 133.476562 C 44.269531 130.933594 42.640625 128.523438 41.335938 125.914062 Z M 46.160156 103.292969 C 45.769531 107.398438 45.507812 111.503906 45.507812 115.613281 C 44.988281 112.941406 44.464844 110.265625 43.878906 107.660156 C 41.664062 98.269531 41.726562 88.753906 42.117188 79.101562 C 42.511719 65.019531 44.402344 50.742188 51.050781 38.09375 C 54.765625 30.597656 59.136719 23.359375 64.023438 16.515625 C 65.65625 14.234375 67.414062 11.953125 68.589844 9.410156 C 68.589844 9.34375 68.652344 9.34375 68.652344 9.277344 C 68.523438 11.105469 68.457031 12.929688 68.394531 14.753906 C 68 20.492188 66.4375 26.164062 65.003906 31.707031 C 62.71875 39.269531 60.375 46.765625 58.089844 54.265625 C 55.808594 61.761719 53.007812 69.195312 51.050781 76.820312 C 49.09375 85.492188 47.074219 94.292969 46.160156 103.292969 Z M 12.910156 201.148438 C 10.367188 195.414062 8.21875 189.546875 6.585938 183.417969 C 4.109375 174.746094 2.347656 165.878906 2.347656 156.882812 C 2.152344 150.296875 3.328125 143.84375 4.433594 137.386719 C 4.695312 139.800781 5.085938 142.148438 5.414062 144.558594 C 6.457031 154.339844 8.476562 163.988281 11.019531 173.507812 C 13.238281 181.070312 14.867188 188.761719 15.519531 196.585938 C 16.171875 201.476562 16.496094 206.367188 17.277344 211.253906 C 15.84375 207.863281 14.34375 204.476562 12.910156 201.148438 Z M 21.058594 218.949219 C 20.929688 218.425781 20.800781 217.90625 20.667969 217.320312 C 19.820312 214.320312 19.234375 211.253906 18.910156 208.191406 C 17.996094 200.367188 17.476562 192.414062 15.910156 184.65625 C 15.0625 180.679688 14.019531 176.765625 12.910156 172.855469 C 11.542969 167.769531 10.433594 162.554688 9.390625 157.402344 C 8.476562 153.101562 7.957031 148.734375 7.371094 144.363281 C 6.78125 140.453125 6.066406 136.605469 5.804688 132.628906 C 5.738281 131.585938 5.675781 130.542969 5.675781 129.566406 C 5.675781 129.371094 5.738281 129.171875 5.738281 128.976562 C 9.324219 140.324219 14.996094 151.078125 18.648438 162.421875 C 21.582031 171.679688 21.582031 181.394531 21.515625 191.042969 C 21.710938 200.367188 20.863281 209.625 21.058594 218.949219 Z M 54.441406 198.867188 C 56.917969 195.21875 58.222656 190.980469 60.4375 187.132812 C 62.71875 182.960938 65.328125 178.917969 67.347656 174.617188 C 71.457031 167.574219 76.671875 161.316406 82.019531 155.1875 C 84.691406 151.730469 87.691406 148.472656 90.753906 145.40625 C 93.167969 142.667969 95.839844 139.800781 98.449219 137.128906 C 101.511719 133.542969 104.773438 130.21875 107.835938 126.566406 C 109.335938 124.609375 110.769531 122.523438 112.464844 120.699219 C 112.855469 120.242188 113.246094 119.785156 113.636719 119.328125 C 113.183594 121.089844 112.464844 122.851562 112.007812 124.675781 C 110.769531 128.585938 109.269531 132.367188 107.574219 136.085938 C 104.640625 142.800781 101.1875 149.1875 96.882812 155.121094 C 94.144531 158.96875 91.796875 162.878906 89.253906 166.921875 C 86.257812 171.421875 82.476562 175.265625 79.019531 179.441406 C 75.761719 183.15625 72.109375 186.480469 68.523438 189.804688 C 67.089844 191.109375 65.71875 192.480469 64.285156 193.78125 C 61.675781 196.128906 58.742188 198.019531 56.003906 200.238281 C 53.984375 201.800781 52.160156 203.5625 50.074219 205.0625 C 49.617188 205.324219 49.160156 205.648438 48.769531 205.910156 C 50.527344 203.496094 52.746094 201.34375 54.441406 198.867188 Z M 42.378906 210.667969 C 41.726562 200.042969 43.617188 192.542969 48.3125 182.960938 C 50.332031 178.851562 52.875 175.070312 54.960938 170.964844 C 56.332031 168.160156 57.699219 165.292969 59.394531 162.621094 C 58.417969 167.117188 57.179688 171.617188 56.136719 176.113281 C 55.027344 180.089844 54.179688 184.132812 52.8125 187.980469 C 51.117188 192.609375 48.636719 196.914062 46.617188 201.410156 C 45.25 204.539062 43.878906 207.605469 42.378906 210.667969 Z M 114.878906 131.195312 C 114.09375 138.234375 112.269531 145.40625 109.660156 152.058594 C 107.117188 158.1875 104.707031 164.769531 100.664062 170.246094 C 97.796875 174.09375 94.863281 177.941406 91.277344 181.199219 C 87.625 184.71875 83.910156 188.109375 79.671875 190.980469 C 73.023438 195.804688 65.65625 199.78125 58.484375 203.757812 C 55.027344 205.582031 51.441406 207.277344 47.988281 209.105469 C 48.378906 208.777344 48.832031 208.453125 49.289062 208.125 C 51.117188 206.953125 53.007812 205.648438 54.636719 204.148438 C 57.441406 201.738281 60.503906 199.652344 63.371094 197.433594 C 68 193.652344 72.175781 189.414062 76.542969 185.308594 C 80.84375 181.070312 84.625 176.308594 88.539062 171.679688 C 92.382812 166.660156 95.253906 160.925781 98.96875 155.773438 C 104.96875 147.296875 109.402344 137.714844 112.921875 127.933594 C 113.703125 125.652344 114.355469 123.242188 115.007812 120.894531 C 115.074219 120.632812 115.136719 120.242188 115.332031 119.71875 C 115.203125 123.566406 115.203125 127.414062 114.878906 131.195312 Z M 114.878906 131.195312 " fill-opacity="1" fill-rule="nonzero"/></g></g></g></g></g><g clip-path="url(#0b14fe3004)"><g mask="url(#1ee77a571a)"><g transform="matrix(1, 0, 0, 1, 11, 219)"><g clip-path="url(#379a3c50d0)"><g clip-path="url(#af78b60310)"><path fill="#ff751f" d="M 117.898438 115.625 C 117.898438 114.910156 117.570312 113.996094 116.65625 114.0625 C 116.007812 114.128906 115.679688 114.777344 115.355469 115.300781 C 114.960938 116.019531 114.507812 116.667969 114.050781 117.320312 C 112.617188 119.210938 110.921875 120.90625 109.488281 122.734375 C 107.007812 126.121094 104.140625 129.1875 101.273438 132.25 C 98.792969 135.121094 96.1875 137.792969 93.578125 140.53125 C 90.972656 143.464844 88.035156 146.464844 85.296875 149.398438 C 80.605469 155.199219 75.390625 160.675781 71.085938 166.804688 C 69.914062 168.371094 68.738281 170 67.628906 171.628906 C 66.066406 173.910156 64.890625 176.453125 63.589844 178.933594 C 61.957031 181.734375 60.132812 184.472656 58.699219 187.40625 C 56.675781 191.058594 55.4375 195.164062 53.027344 198.621094 C 52.046875 199.988281 50.875 201.230469 49.765625 202.53125 C 50.027344 201.878906 50.355469 201.230469 50.679688 200.578125 C 52.894531 196.144531 55.242188 191.710938 56.675781 186.949219 C 58.308594 180.953125 59.742188 174.953125 61.242188 168.890625 C 61.828125 166.414062 62.351562 163.871094 62.804688 161.394531 C 62.871094 160.285156 63.785156 158.265625 62.285156 157.808594 C 61.632812 157.679688 61.175781 158.199219 60.851562 158.65625 C 60.261719 159.570312 59.675781 160.480469 59.089844 161.394531 C 56.875 164.785156 55.179688 168.5 53.289062 172.152344 C 46.964844 182.84375 40.574219 194.511719 41.226562 207.421875 C 41.292969 209.246094 41.355469 211.335938 41.683594 213.226562 C 41.683594 213.355469 41.746094 213.550781 41.746094 213.679688 C 36.46875 216.613281 31.382812 220.136719 27.339844 224.699219 C 27.144531 224.894531 26.6875 225.417969 26.101562 226.132812 C 26.363281 225.351562 26.6875 224.570312 27.011719 223.785156 C 29.6875 217.007812 32.75 210.160156 35.226562 203.25 C 37.511719 197.054688 39.335938 190.667969 41.355469 184.40625 C 44.355469 174.890625 47.355469 165.371094 48.660156 155.460938 C 49.246094 151.027344 49.441406 146.53125 49.570312 142.097656 C 52.570312 139.683594 55.308594 136.945312 57.980469 134.207031 C 60.328125 131.730469 62.742188 129.382812 64.5 126.449219 C 67.890625 120.648438 70.628906 114.128906 71.085938 107.347656 C 71.214844 105.457031 71.28125 103.566406 71.28125 101.609375 C 71.28125 101.21875 71.28125 100.828125 71.085938 100.4375 C 70.238281 99.195312 69 100.4375 68.542969 101.285156 C 66.980469 103.628906 65.609375 106.238281 63.652344 108.390625 C 61.503906 110.867188 58.894531 113.410156 57.070312 116.277344 C 54.527344 120.058594 52.699219 124.230469 51.398438 128.601562 C 50.746094 130.492188 50.289062 132.382812 49.832031 134.335938 C 50.09375 127.882812 50.808594 121.363281 52.308594 115.039062 C 54.332031 106.957031 57.523438 99.261719 60.523438 91.503906 C 68.671875 70.773438 76.691406 53.953125 76.433594 30.9375 C 76.300781 23.046875 75.519531 15.160156 74.148438 7.402344 C 73.757812 5.640625 73.628906 3.75 72.847656 2.121094 C 72.257812 1.402344 71.085938 1.402344 70.433594 1.988281 C 69.652344 2.707031 69.390625 3.75 69.066406 4.726562 C 68.476562 6.421875 67.957031 8.183594 67.109375 9.75 C 64.4375 14.246094 61.046875 18.222656 58.308594 22.722656 C 51.265625 33.804688 44.941406 45.410156 42.660156 58.253906 C 41.421875 64.707031 40.835938 71.292969 40.574219 77.878906 C 40.183594 86.875 39.988281 95.871094 41.488281 104.804688 C 42.398438 109.171875 43.3125 113.539062 44.09375 117.972656 C 42.988281 115.5625 41.617188 113.214844 40.964844 110.605469 C 39.464844 105.519531 38.488281 100.175781 36.664062 95.089844 C 34.773438 89.484375 32.75 83.941406 31.121094 78.203125 C 26.753906 63.859375 21.796875 49.648438 17.429688 35.238281 C 16.191406 31.457031 15.34375 27.285156 14.234375 23.441406 C 13.84375 22.59375 12.671875 22.460938 12.148438 23.242188 C 11.433594 24.875 11.171875 26.699219 10.648438 28.460938 C 9.738281 31.652344 8.890625 34.785156 8.238281 38.109375 C 5.695312 53.363281 4.914062 69.273438 9.214844 84.265625 C 11.367188 91.765625 15.015625 98.742188 18.800781 105.519531 C 21.796875 110.671875 24.730469 115.886719 28.644531 120.449219 C 33.925781 126.382812 40.3125 131.46875 44.746094 138.117188 C 45.726562 139.617188 46.246094 141.378906 46.703125 143.074219 C 46.769531 143.335938 46.832031 143.59375 47.027344 143.726562 C 46.898438 146.921875 46.769531 150.113281 46.375 153.308594 C 45.921875 157.546875 45.074219 161.785156 44.09375 165.957031 C 42.203125 173.585938 39.726562 181.277344 37.378906 188.839844 C 35.488281 195.230469 33.335938 201.554688 30.925781 207.8125 C 28.839844 213.226562 26.425781 218.503906 24.40625 223.980469 C 24.273438 222.9375 24.144531 221.894531 24.144531 220.851562 C 24.144531 216.746094 24.078125 212.574219 24.273438 208.464844 C 24.730469 202.011719 24.730469 195.621094 24.730469 189.167969 C 24.796875 181.410156 24.601562 173.457031 22.710938 165.890625 C 19.253906 152.722656 12.476562 140.792969 8.367188 127.816406 C 8.105469 126.96875 7.847656 125.992188 7.519531 125.015625 C 7.324219 124.492188 7.195312 123.644531 6.671875 123.386719 C 4.519531 122.539062 5.109375 125.796875 4.847656 127.167969 C 4.261719 134.597656 2.304688 141.835938 1.585938 149.265625 C 0.933594 155.527344 1.195312 161.914062 1.914062 168.175781 C 2.433594 172.738281 3.542969 177.171875 4.714844 181.605469 C 6.019531 186.625 7.390625 191.449219 9.34375 196.339844 C 11.824219 202.664062 14.757812 208.726562 17.363281 214.984375 C 18.667969 218.179688 19.972656 221.375 21.144531 224.632812 C 21.734375 226.132812 22.058594 227.699219 22.644531 229.132812 C 14.886719 251.625 12.539062 276.140625 16.710938 299.542969 C 17.820312 306.0625 19.710938 312.324219 21.796875 318.582031 C 22.839844 321.515625 23.558594 324.644531 24.863281 327.449219 C 25.1875 327.773438 25.710938 327.773438 26.035156 327.511719 C 26.296875 327.253906 26.363281 326.859375 26.230469 326.535156 C 25.839844 325.492188 25.515625 324.449219 25.1875 323.40625 C 24.015625 319.691406 22.839844 315.972656 21.667969 312.257812 C 18.539062 301.890625 17.039062 290.9375 16.90625 280.117188 C 16.648438 263.6875 19.191406 247.257812 24.339844 231.675781 C 24.40625 231.609375 24.472656 231.480469 24.535156 231.347656 C 31.054688 222.222656 38.03125 218.113281 47.550781 212.898438 C 59.9375 206.507812 72.519531 200.316406 83.734375 192.035156 C 86.796875 189.949219 89.535156 187.472656 92.144531 184.929688 C 94.621094 182.714844 96.96875 180.367188 98.988281 177.757812 C 103.03125 172.867188 106.8125 167.71875 109.160156 161.785156 C 114.179688 150.703125 118.09375 139.03125 118.15625 126.710938 C 118.027344 122.863281 118.09375 119.277344 117.898438 115.625 Z M 51.59375 136.03125 C 51.984375 134.273438 52.375 132.578125 52.832031 130.882812 C 54.332031 125.40625 56.546875 120.058594 60.066406 115.496094 C 62.351562 112.5625 65.152344 110.019531 67.238281 106.957031 C 68.023438 105.78125 68.738281 104.542969 69.457031 103.304688 C 69.519531 111.910156 66.523438 120.320312 61.566406 127.296875 C 58.371094 131.273438 54.65625 134.859375 51.003906 138.511719 C 51.203125 137.664062 51.398438 136.878906 51.59375 136.03125 Z M 70.824219 18.027344 C 71.214844 14.246094 71.085938 10.398438 71.347656 6.617188 C 71.347656 6.554688 71.347656 6.421875 71.347656 6.292969 C 74.347656 22.265625 75.128906 38.957031 71.085938 54.863281 C 68.023438 67.25 62.675781 78.726562 58.175781 90.722656 C 54.265625 100.566406 50.222656 110.605469 48.527344 121.101562 C 48.527344 120.648438 48.464844 120.191406 48.464844 119.734375 C 48.332031 116.082031 48.464844 112.367188 48.660156 108.714844 C 49.441406 97.304688 51.722656 85.898438 54.527344 74.8125 C 58.566406 62.296875 62.609375 49.84375 66.390625 37.261719 C 68.347656 30.871094 70.042969 24.546875 70.824219 18.027344 Z M 31.511719 120.191406 C 27.730469 116.148438 24.925781 111.324219 22.125 106.5625 C 17.953125 99.261719 13.910156 91.894531 11.496094 83.8125 C 8.5625 73.707031 7.847656 63.011719 8.824219 52.582031 C 9.148438 48.277344 9.476562 43.976562 10.257812 39.671875 C 10.648438 37.523438 11.105469 35.4375 11.691406 33.285156 C 11.886719 37.457031 12.410156 41.695312 12.671875 45.867188 C 12.671875 45.933594 12.671875 45.933594 12.671875 45.996094 C 13.0625 54.277344 13.972656 62.621094 15.929688 70.707031 C 17.558594 77.550781 20.039062 84.136719 22.382812 90.722656 C 23.363281 93.523438 24.273438 96.394531 25.515625 99.195312 C 27.664062 103.890625 30.46875 108.257812 33.078125 112.757812 C 35.75 117.515625 37.835938 122.667969 40.3125 127.558594 C 41.097656 129.1875 42.074219 130.75 42.988281 132.25 C 39.464844 128.078125 35.292969 124.230469 31.511719 120.191406 Z M 42.140625 126.644531 C 39.792969 121.886719 37.769531 116.863281 35.164062 112.234375 C 32.75 108.128906 30.273438 104.023438 28.121094 99.785156 C 26.949219 97.4375 26.035156 94.894531 25.1875 92.351562 C 23.820312 88.441406 22.320312 84.398438 20.949219 80.421875 C 18.015625 72.140625 16.191406 63.339844 15.277344 54.539062 C 14.757812 47.628906 14.234375 40.78125 13.582031 33.871094 C 13.519531 32.371094 13.386719 30.804688 13.386719 29.242188 C 17.691406 46.0625 24.015625 62.363281 28.96875 79.050781 C 30.859375 85.832031 33.46875 92.613281 35.554688 99.328125 C 36.921875 103.957031 37.769531 108.910156 39.402344 113.476562 C 40.117188 115.429688 41.226562 117.191406 42.074219 119.082031 C 42.988281 120.972656 43.3125 123.058594 43.964844 125.015625 C 44.746094 127.363281 45.984375 129.644531 46.441406 132.121094 C 46.507812 132.839844 46.574219 133.488281 46.574219 134.207031 C 45.074219 131.664062 43.441406 129.253906 42.140625 126.644531 Z M 46.964844 104.023438 C 46.574219 108.128906 46.3125 112.234375 46.3125 116.34375 C 45.789062 113.671875 45.269531 110.996094 44.679688 108.390625 C 42.464844 99 42.53125 89.484375 42.921875 79.832031 C 43.3125 65.75 45.203125 51.472656 51.851562 38.824219 C 55.570312 31.328125 59.9375 24.089844 64.828125 17.246094 C 66.457031 14.964844 68.21875 12.683594 69.390625 10.140625 C 69.390625 10.074219 69.457031 10.074219 69.457031 10.007812 C 69.324219 11.835938 69.261719 13.660156 69.195312 15.484375 C 68.804688 21.222656 67.238281 26.894531 65.804688 32.4375 C 63.523438 40 61.175781 47.496094 58.894531 54.996094 C 56.613281 62.492188 53.808594 69.925781 51.851562 77.550781 C 49.898438 86.222656 47.875 95.023438 46.964844 104.023438 Z M 13.714844 201.878906 C 11.171875 196.144531 9.019531 190.277344 7.390625 184.148438 C 4.914062 175.476562 3.152344 166.609375 3.152344 157.613281 C 2.957031 151.027344 4.128906 144.574219 5.238281 138.117188 C 5.5 140.53125 5.890625 142.878906 6.214844 145.289062 C 7.257812 155.070312 9.28125 164.71875 11.824219 174.238281 C 14.039062 181.800781 15.667969 189.492188 16.320312 197.316406 C 16.972656 202.207031 17.300781 207.097656 18.082031 211.984375 C 16.648438 208.597656 15.148438 205.207031 13.714844 201.878906 Z M 21.863281 219.679688 C 21.734375 219.15625 21.601562 218.636719 21.472656 218.050781 C 20.625 215.050781 20.039062 211.984375 19.710938 208.921875 C 18.800781 201.097656 18.277344 193.144531 16.710938 185.386719 C 15.863281 181.410156 14.820312 177.496094 13.714844 173.585938 C 12.34375 168.5 11.234375 163.285156 10.191406 158.132812 C 9.28125 153.832031 8.757812 149.464844 8.171875 145.09375 C 7.585938 141.183594 6.867188 137.335938 6.605469 133.359375 C 6.542969 132.316406 6.476562 131.273438 6.476562 130.296875 C 6.476562 130.101562 6.542969 129.90625 6.542969 129.707031 C 10.128906 141.054688 15.800781 151.808594 19.449219 163.152344 C 22.382812 172.410156 22.382812 182.125 22.320312 191.773438 C 22.515625 201.097656 21.667969 210.355469 21.863281 219.679688 Z M 55.242188 199.597656 C 57.722656 195.949219 59.023438 191.710938 61.242188 187.863281 C 63.523438 183.691406 66.132812 179.648438 68.152344 175.347656 C 72.257812 168.304688 77.476562 162.046875 82.820312 155.917969 C 85.496094 152.460938 88.492188 149.203125 91.558594 146.136719 C 93.96875 143.398438 96.644531 140.53125 99.25 137.859375 C 102.316406 134.273438 105.574219 130.949219 108.640625 127.296875 C 110.136719 125.339844 111.574219 123.253906 113.269531 121.429688 C 113.660156 120.972656 114.050781 120.515625 114.441406 120.058594 C 113.984375 121.820312 113.269531 123.582031 112.8125 125.40625 C 111.574219 129.316406 110.074219 133.097656 108.378906 136.816406 C 105.445312 143.53125 101.988281 149.917969 97.6875 155.851562 C 94.949219 159.699219 92.601562 163.609375 90.058594 167.652344 C 87.058594 172.152344 83.277344 175.996094 79.820312 180.171875 C 76.5625 183.886719 72.910156 187.210938 69.324219 190.535156 C 67.890625 191.839844 66.523438 193.210938 65.089844 194.511719 C 62.480469 196.859375 59.546875 198.75 56.808594 200.96875 C 54.785156 202.53125 52.960938 204.292969 50.875 205.792969 C 50.417969 206.054688 49.960938 206.378906 49.570312 206.640625 C 51.332031 204.226562 53.546875 202.078125 55.242188 199.597656 Z M 43.183594 211.398438 C 42.53125 200.773438 44.421875 193.273438 49.113281 183.691406 C 51.136719 179.582031 53.679688 175.800781 55.765625 171.695312 C 57.132812 168.890625 58.503906 166.023438 60.199219 163.351562 C 59.21875 167.847656 57.980469 172.347656 56.9375 176.84375 C 55.832031 180.824219 54.984375 184.863281 53.613281 188.710938 C 51.917969 193.339844 49.441406 197.644531 47.417969 202.140625 C 46.050781 205.269531 44.679688 208.335938 43.183594 211.398438 Z M 115.679688 131.925781 C 114.898438 138.964844 113.070312 146.136719 110.464844 152.789062 C 107.921875 158.917969 105.507812 165.5 101.46875 170.976562 C 98.597656 174.824219 95.664062 178.671875 92.078125 181.929688 C 88.429688 185.453125 84.710938 188.839844 80.472656 191.710938 C 73.824219 196.535156 66.457031 200.511719 59.285156 204.488281 C 55.832031 206.3125 52.246094 208.007812 48.789062 209.835938 C 49.179688 209.507812 49.636719 209.183594 50.09375 208.855469 C 51.917969 207.683594 53.808594 206.378906 55.4375 204.878906 C 58.242188 202.46875 61.304688 200.382812 64.175781 198.164062 C 68.804688 194.382812 72.976562 190.144531 77.34375 186.039062 C 81.648438 181.800781 85.429688 177.042969 89.339844 172.414062 C 93.1875 167.390625 96.054688 161.65625 99.773438 156.503906 C 105.769531 148.027344 110.203125 138.445312 113.722656 128.664062 C 114.507812 126.382812 115.160156 123.972656 115.808594 121.625 C 115.875 121.363281 115.941406 120.972656 116.136719 120.449219 C 116.007812 124.296875 116.007812 128.144531 115.679688 131.925781 Z M 115.679688 131.925781 " fill-opacity="1" fill-rule="nonzero"/></g></g></g></g></g></svg>